<svg width="268" height="93" viewBox="0 0 268 93" fill="none" xmlns="http://www.w3.org/2000/svg">
<rect width="268" height="93" rx="15" fill="url(#paint0_linear_2203_3327)"/>
<path d="M86.382 25.228C87.4087 25.228 88.3093 25.4287 89.084 25.83C89.868 26.2313 90.47 26.8053 90.89 27.552C91.3193 28.2893 91.534 29.148 91.534 30.128C91.534 31.108 91.3193 31.9667 90.89 32.704C90.47 33.432 89.868 33.9967 89.084 34.398C88.3093 34.7993 87.4087 35 86.382 35H82.966V25.228H86.382ZM86.312 33.334C87.3387 33.334 88.132 33.054 88.692 32.494C89.252 31.934 89.532 31.1453 89.532 30.128C89.532 29.1107 89.252 28.3173 88.692 27.748C88.132 27.1693 87.3387 26.88 86.312 26.88H84.926V33.334H86.312ZM97.0372 35.098C96.1225 35.098 95.2825 34.8833 94.5172 34.454C93.7518 34.0247 93.1452 33.432 92.6972 32.676C92.2492 31.9107 92.0252 31.0473 92.0252 30.086C92.0252 29.134 92.2492 28.28 92.6972 27.524C93.1452 26.7587 93.7518 26.1613 94.5172 25.732C95.2825 25.3027 96.1225 25.088 97.0372 25.088C97.9612 25.088 98.8012 25.3027 99.5572 25.732C100.322 26.1613 100.924 26.7587 101.363 27.524C101.811 28.28 102.035 29.134 102.035 30.086C102.035 31.0473 101.811 31.9107 101.363 32.676C100.924 33.432 100.322 34.0247 99.5572 34.454C98.7918 34.8833 97.9518 35.098 97.0372 35.098ZM97.0372 33.348C97.6252 33.348 98.1432 33.2173 98.5912 32.956C99.0392 32.6853 99.3892 32.3027 99.6412 31.808C99.8932 31.3133 100.019 30.7393 100.019 30.086C100.019 29.4327 99.8932 28.8633 99.6412 28.378C99.3892 27.8833 99.0392 27.5053 98.5912 27.244C98.1432 26.9827 97.6252 26.852 97.0372 26.852C96.4492 26.852 95.9265 26.9827 95.4692 27.244C95.0212 27.5053 94.6712 27.8833 94.4192 28.378C94.1672 28.8633 94.0412 29.4327 94.0412 30.086C94.0412 30.7393 94.1672 31.3133 94.4192 31.808C94.6712 32.3027 95.0212 32.6853 95.4692 32.956C95.9265 33.2173 96.4492 33.348 97.0372 33.348ZM116.055 25.228L113.325 35H111.015L109.181 28.042L107.263 35L104.967 35.014L102.335 25.228H104.435L106.157 32.816L108.145 25.228H110.329L112.205 32.774L113.941 25.228H116.055ZM125.193 35H123.233L118.795 28.294V35H116.835V25.214H118.795L123.233 31.934V25.214H125.193V35ZM128.59 33.446H131.81V35H126.63V25.228H128.59V33.446ZM137.092 35.098C136.177 35.098 135.337 34.8833 134.572 34.454C133.807 34.0247 133.2 33.432 132.752 32.676C132.304 31.9107 132.08 31.0473 132.08 30.086C132.08 29.134 132.304 28.28 132.752 27.524C133.2 26.7587 133.807 26.1613 134.572 25.732C135.337 25.3027 136.177 25.088 137.092 25.088C138.016 25.088 138.856 25.3027 139.612 25.732C140.377 26.1613 140.979 26.7587 141.418 27.524C141.866 28.28 142.09 29.134 142.09 30.086C142.09 31.0473 141.866 31.9107 141.418 32.676C140.979 33.432 140.377 34.0247 139.612 34.454C138.847 34.8833 138.007 35.098 137.092 35.098ZM137.092 33.348C137.68 33.348 138.198 33.2173 138.646 32.956C139.094 32.6853 139.444 32.3027 139.696 31.808C139.948 31.3133 140.074 30.7393 140.074 30.086C140.074 29.4327 139.948 28.8633 139.696 28.378C139.444 27.8833 139.094 27.5053 138.646 27.244C138.198 26.9827 137.68 26.852 137.092 26.852C136.504 26.852 135.981 26.9827 135.524 27.244C135.076 27.5053 134.726 27.8833 134.474 28.378C134.222 28.8633 134.096 29.4327 134.096 30.086C134.096 30.7393 134.222 31.3133 134.474 31.808C134.726 32.3027 135.076 32.6853 135.524 32.956C135.981 33.2173 136.504 33.348 137.092 33.348ZM149.04 33.138H145.148L144.504 35H142.446L145.96 25.214H148.242L151.756 35H149.684L149.04 33.138ZM148.508 31.57L147.094 27.482L145.68 31.57H148.508ZM155.986 25.228C157.012 25.228 157.913 25.4287 158.688 25.83C159.472 26.2313 160.074 26.8053 160.494 27.552C160.923 28.2893 161.138 29.148 161.138 30.128C161.138 31.108 160.923 31.9667 160.494 32.704C160.074 33.432 159.472 33.9967 158.688 34.398C157.913 34.7993 157.012 35 155.986 35H152.57V25.228H155.986ZM155.916 33.334C156.942 33.334 157.736 33.054 158.296 32.494C158.856 31.934 159.136 31.1453 159.136 30.128C159.136 29.1107 158.856 28.3173 158.296 27.748C157.736 27.1693 156.942 26.88 155.916 26.88H154.53V33.334H155.916ZM169.477 35.098C168.562 35.098 167.722 34.8833 166.957 34.454C166.191 34.0247 165.585 33.432 165.137 32.676C164.689 31.9107 164.465 31.0473 164.465 30.086C164.465 29.134 164.689 28.28 165.137 27.524C165.585 26.7587 166.191 26.1613 166.957 25.732C167.722 25.3027 168.562 25.088 169.477 25.088C170.401 25.088 171.241 25.3027 171.997 25.732C172.762 26.1613 173.364 26.7587 173.803 27.524C174.251 28.28 174.475 29.134 174.475 30.086C174.475 31.0473 174.251 31.9107 173.803 32.676C173.364 33.432 172.762 34.0247 171.997 34.454C171.231 34.8833 170.391 35.098 169.477 35.098ZM169.477 33.348C170.065 33.348 170.583 33.2173 171.031 32.956C171.479 32.6853 171.829 32.3027 172.081 31.808C172.333 31.3133 172.459 30.7393 172.459 30.086C172.459 29.4327 172.333 28.8633 172.081 28.378C171.829 27.8833 171.479 27.5053 171.031 27.244C170.583 26.9827 170.065 26.852 169.477 26.852C168.889 26.852 168.366 26.9827 167.909 27.244C167.461 27.5053 167.111 27.8833 166.859 28.378C166.607 28.8633 166.481 29.4327 166.481 30.086C166.481 30.7393 166.607 31.3133 166.859 31.808C167.111 32.3027 167.461 32.6853 167.909 32.956C168.366 33.2173 168.889 33.348 169.477 33.348ZM183.791 35H181.831L177.393 28.294V35H175.433V25.214H177.393L181.831 31.934V25.214H183.791V35ZM194.714 25.228V26.81H192.11V35H190.15V26.81H187.546V25.228H194.714ZM203.75 25.228V35H201.79V30.842H197.604V35H195.644V25.228H197.604V29.246H201.79V25.228H203.75ZM207.139 26.81V29.26H210.429V30.814H207.139V33.404H210.849V35H205.179V25.214H210.849V26.81H207.139Z" fill="white"/>
<path d="M91.94 64.34H86.38L85.46 67H82.52L87.54 53.02H90.8L95.82 67H92.86L91.94 64.34ZM91.18 62.1L89.16 56.26L87.14 62.1H91.18ZM107.376 57.36C107.376 58.1067 107.196 58.8067 106.836 59.46C106.49 60.1133 105.936 60.64 105.176 61.04C104.43 61.44 103.483 61.64 102.336 61.64H99.9964V67H97.1964V53.04H102.336C103.416 53.04 104.336 53.2267 105.096 53.6C105.856 53.9733 106.423 54.4867 106.796 55.14C107.183 55.7933 107.376 56.5333 107.376 57.36ZM102.216 59.38C102.99 59.38 103.563 59.2067 103.936 58.86C104.31 58.5 104.496 58 104.496 57.36C104.496 56 103.736 55.32 102.216 55.32H99.9964V59.38H102.216ZM119.044 57.36C119.044 58.1067 118.864 58.8067 118.504 59.46C118.158 60.1133 117.604 60.64 116.844 61.04C116.098 61.44 115.151 61.64 114.004 61.64H111.664V67H108.864V53.04H114.004C115.084 53.04 116.004 53.2267 116.764 53.6C117.524 53.9733 118.091 54.4867 118.464 55.14C118.851 55.7933 119.044 56.5333 119.044 57.36ZM113.884 59.38C114.658 59.38 115.231 59.2067 115.604 58.86C115.978 58.5 116.164 58 116.164 57.36C116.164 56 115.404 55.32 113.884 55.32H111.664V59.38H113.884ZM129.618 67.14C128.645 67.14 127.765 66.9733 126.978 66.64C126.205 66.3067 125.591 65.8267 125.138 65.2C124.685 64.5733 124.451 63.8333 124.438 62.98H127.438C127.478 63.5533 127.678 64.0067 128.038 64.34C128.411 64.6733 128.918 64.84 129.558 64.84C130.211 64.84 130.725 64.6867 131.098 64.38C131.471 64.06 131.658 63.6467 131.658 63.14C131.658 62.7267 131.531 62.3867 131.278 62.12C131.025 61.8533 130.705 61.6467 130.318 61.5C129.945 61.34 129.425 61.1667 128.758 60.98C127.851 60.7133 127.111 60.4533 126.538 60.2C125.978 59.9333 125.491 59.54 125.078 59.02C124.678 58.4867 124.478 57.78 124.478 56.9C124.478 56.0733 124.685 55.3533 125.098 54.74C125.511 54.1267 126.091 53.66 126.838 53.34C127.585 53.0067 128.438 52.84 129.398 52.84C130.838 52.84 132.005 53.1933 132.898 53.9C133.805 54.5933 134.305 55.5667 134.398 56.82H131.318C131.291 56.34 131.085 55.9467 130.698 55.64C130.325 55.32 129.825 55.16 129.198 55.16C128.651 55.16 128.211 55.3 127.878 55.58C127.558 55.86 127.398 56.2667 127.398 56.8C127.398 57.1733 127.518 57.4867 127.758 57.74C128.011 57.98 128.318 58.18 128.678 58.34C129.051 58.4867 129.571 58.66 130.238 58.86C131.145 59.1267 131.885 59.3933 132.458 59.66C133.031 59.9267 133.525 60.3267 133.938 60.86C134.351 61.3933 134.558 62.0933 134.558 62.96C134.558 63.7067 134.365 64.4 133.978 65.04C133.591 65.68 133.025 66.1933 132.278 66.58C131.531 66.9533 130.645 67.14 129.618 67.14ZM145.985 53.04V55.3H142.265V67H139.465V55.3H135.745V53.04H145.985ZM154.008 67.14C152.702 67.14 151.502 66.8333 150.408 66.22C149.315 65.6067 148.448 64.76 147.808 63.68C147.168 62.5867 146.848 61.3533 146.848 59.98C146.848 58.62 147.168 57.4 147.808 56.32C148.448 55.2267 149.315 54.3733 150.408 53.76C151.502 53.1467 152.702 52.84 154.008 52.84C155.328 52.84 156.528 53.1467 157.608 53.76C158.702 54.3733 159.562 55.2267 160.188 56.32C160.828 57.4 161.148 58.62 161.148 59.98C161.148 61.3533 160.828 62.5867 160.188 63.68C159.562 64.76 158.702 65.6067 157.608 66.22C156.515 66.8333 155.315 67.14 154.008 67.14ZM154.008 64.64C154.848 64.64 155.588 64.4533 156.228 64.08C156.868 63.6933 157.368 63.1467 157.728 62.44C158.088 61.7333 158.268 60.9133 158.268 59.98C158.268 59.0467 158.088 58.2333 157.728 57.54C157.368 56.8333 156.868 56.2933 156.228 55.92C155.588 55.5467 154.848 55.36 154.008 55.36C153.168 55.36 152.422 55.5467 151.768 55.92C151.128 56.2933 150.628 56.8333 150.268 57.54C149.908 58.2333 149.728 59.0467 149.728 59.98C149.728 60.9133 149.908 61.7333 150.268 62.44C150.628 63.1467 151.128 63.6933 151.768 64.08C152.422 64.4533 153.168 64.64 154.008 64.64ZM169.932 67L166.852 61.56H165.532V67H162.732V53.04H167.972C169.052 53.04 169.972 53.2333 170.732 53.62C171.492 53.9933 172.058 54.5067 172.432 55.16C172.818 55.8 173.012 56.52 173.012 57.32C173.012 58.24 172.745 59.0733 172.212 59.82C171.678 60.5533 170.885 61.06 169.832 61.34L173.172 67H169.932ZM165.532 59.46H167.872C168.632 59.46 169.198 59.28 169.572 58.92C169.945 58.5467 170.132 58.0333 170.132 57.38C170.132 56.74 169.945 56.2467 169.572 55.9C169.198 55.54 168.632 55.36 167.872 55.36H165.532V59.46ZM177.844 55.3V58.8H182.544V61.02H177.844V64.72H183.144V67H175.044V53.02H183.144V55.3H177.844Z" fill="white"/>
<path d="M51.6351 24.9041C51.6351 26.9947 50.7184 29.0854 49.4226 30.5921C48.0476 32.2622 45.6684 33.5036 43.7768 33.5036C43.5601 33.5036 43.3434 33.475 43.2101 33.4505C43.1608 33.207 43.1343 32.9596 43.1309 32.7114C43.1309 30.5921 44.2393 28.5015 45.4268 27.1785C46.9393 25.4594 49.4476 24.1609 51.5559 24.0833C51.6101 24.3201 51.6351 24.6141 51.6351 24.9041ZM59.0705 38.0728L59.1747 38.0054C56.3643 34.0589 52.0976 33.9527 50.9101 33.9527C49.0934 33.9527 47.4663 34.5856 46.0997 35.1165C45.1101 35.5003 44.2559 35.8311 43.5643 35.8311C42.7997 35.8311 41.9247 35.484 40.9476 35.1001C39.7143 34.6101 38.3226 34.0589 36.7851 34.0589C31.5997 34.0589 26.333 38.2729 26.333 46.2089C26.333 51.1579 28.2788 56.3743 30.6872 59.7308C32.7663 62.5891 34.5747 64.9166 37.1663 64.9166C38.3955 64.9166 39.2976 64.543 40.2455 64.149C41.2955 63.7121 42.4038 63.2506 44.0788 63.2506C45.7747 63.2506 46.7872 63.6835 47.7622 64.1C48.6726 64.4879 49.5476 64.8636 50.9143 64.8636C53.7476 64.8636 55.6101 62.3523 57.3934 59.837C59.3934 56.9786 60.233 54.1734 60.258 54.0427C60.0955 53.9896 54.6643 51.8439 54.6643 45.7842C54.6643 40.9046 58.3663 38.5261 59.0705 38.0728Z" fill="white"/>
<defs>
<linearGradient id="paint0_linear_2203_3327" x1="0" y1="46.5" x2="268" y2="46.5" gradientUnits="userSpaceOnUse">
<stop stop-color="#463E6F"/>
<stop offset="1" stop-color="#1C113B"/>
</linearGradient>
</defs>
</svg>
