<svg width="50" height="49" viewBox="0 0 50 49" fill="none" xmlns="http://www.w3.org/2000/svg">
<path d="M33.6341 4.90409C33.6341 6.99475 32.7174 9.08542 31.4216 10.5922C30.0466 12.2623 27.6674 13.5036 25.7758 13.5036C25.5591 13.5036 25.3424 13.475 25.2091 13.4505C25.1599 13.207 25.1334 12.9596 25.1299 12.7114C25.1299 10.5922 26.2383 8.5015 27.4258 7.1785C28.9383 5.45942 31.4466 4.16092 33.5549 4.08334C33.6091 4.32017 33.6341 4.61417 33.6341 4.90409ZM41.0695 18.0728L41.1737 18.0055C38.3633 14.0589 34.0966 13.9528 32.9091 13.9528C31.0924 13.9528 29.4654 14.5857 28.0987 15.1165C27.1091 15.5003 26.2549 15.8311 25.5633 15.8311C24.7987 15.8311 23.9237 15.484 22.9466 15.1002C21.7133 14.6102 20.3216 14.0589 18.7841 14.0589C13.5987 14.0589 8.33203 18.2729 8.33203 26.2089C8.33203 31.1579 10.2779 36.3743 12.6862 39.7308C14.7654 42.5892 16.5737 44.9167 19.1654 44.9167C20.3945 44.9167 21.2966 44.543 22.2445 44.149C23.2945 43.7121 24.4029 43.2507 26.0779 43.2507C27.7737 43.2507 28.7862 43.6835 29.7612 44.1C30.6716 44.4879 31.5466 44.8636 32.9133 44.8636C35.7466 44.8636 37.6091 42.3523 39.3924 39.837C41.3924 36.9787 42.232 34.1734 42.257 34.0427C42.0945 33.9897 36.6633 31.8439 36.6633 25.7842C36.6633 20.9046 40.3654 18.5261 41.0695 18.0728Z" fill="white"/>
</svg>
