<svg width="50" height="50" viewBox="0 0 50 50" fill="none" xmlns="http://www.w3.org/2000/svg">
<path d="M7.57613 7.15417L25.7845 25.0104L7.71154 43.0312C7.41586 42.6462 7.18634 42.2146 7.03238 41.7542C6.95275 41.2329 6.95275 40.7025 7.03238 40.1813V9.51458C6.97821 8.69167 7.16779 7.86875 7.57404 7.15417M33.6282 17.2229L27.6845 23.1104L9.69279 5.41667C10.2761 5.21458 10.9011 5.15833 11.5115 5.25417C12.4699 5.51667 13.3845 5.92083 14.224 6.44792L30.5074 15.4583C31.5657 16.0271 32.597 16.625 33.6282 17.2229ZM27.6865 26.9375L33.6011 32.7458L29.3136 35.1333L16.2324 42.4042C15.149 43.0021 14.0615 43.5729 13.0032 44.225C12.5504 44.5069 12.0426 44.689 11.5137 44.7591C10.9849 44.8291 10.4472 44.7856 9.93654 44.6312L27.6865 26.9375ZM43.0199 25.0104C43.0351 25.7389 42.851 26.4577 42.4875 27.0892C42.124 27.7207 41.5949 28.241 40.9574 28.5938L36.0699 31.3062L29.6386 25.0104L36.097 18.6062C37.7532 19.5292 39.3824 20.4521 41.0095 21.3208C41.6584 21.6835 42.1914 22.2225 42.5468 22.8754C42.9022 23.5284 43.0676 24.2686 43.0199 25.0104Z" fill="white"/>
</svg>
