<svg width="260" height="93" viewBox="0 0 260 93" fill="none" xmlns="http://www.w3.org/2000/svg">
<rect width="260" height="93" rx="15" fill="url(#paint0_linear_2203_3326)"/>
<path d="M96.77 29.168C96.546 28.7573 96.238 28.4447 95.846 28.23C95.454 28.0153 94.9967 27.908 94.474 27.908C93.8953 27.908 93.382 28.0387 92.934 28.3C92.486 28.5613 92.136 28.9347 91.884 29.42C91.632 29.9053 91.506 30.4653 91.506 31.1C91.506 31.7533 91.632 32.3227 91.884 32.808C92.1453 33.2933 92.5047 33.6667 92.962 33.928C93.4193 34.1893 93.9513 34.32 94.558 34.32C95.3047 34.32 95.916 34.124 96.392 33.732C96.868 33.3307 97.1807 32.7753 97.33 32.066H93.97V30.568H99.262V32.276C99.1313 32.9573 98.8513 33.5873 98.422 34.166C97.9927 34.7447 97.4373 35.2113 96.756 35.566C96.084 35.9113 95.328 36.084 94.488 36.084C93.5453 36.084 92.6913 35.874 91.926 35.454C91.17 35.0247 90.5727 34.432 90.134 33.676C89.7047 32.92 89.49 32.0613 89.49 31.1C89.49 30.1387 89.7047 29.28 90.134 28.524C90.5727 27.7587 91.17 27.166 91.926 26.746C92.6913 26.3167 93.5407 26.102 94.474 26.102C95.5753 26.102 96.532 26.3727 97.344 26.914C98.156 27.446 98.716 28.1973 99.024 29.168H96.77ZM102.172 27.81V30.26H105.462V31.814H102.172V34.404H105.882V36H100.212V26.214H105.882V27.81H102.172ZM113.813 26.228V27.81H111.209V36H109.249V27.81H106.645V26.228H113.813ZM119.539 26.228V36H117.579V26.228H119.539ZM127.626 26.228V27.81H125.022V36H123.062V27.81H120.458V26.228H127.626ZM135.928 36.098C135.013 36.098 134.173 35.8833 133.408 35.454C132.642 35.0247 132.036 34.432 131.588 33.676C131.14 32.9107 130.916 32.0473 130.916 31.086C130.916 30.134 131.14 29.28 131.588 28.524C132.036 27.7587 132.642 27.1613 133.408 26.732C134.173 26.3027 135.013 26.088 135.928 26.088C136.852 26.088 137.692 26.3027 138.448 26.732C139.213 27.1613 139.815 27.7587 140.254 28.524C140.702 29.28 140.926 30.134 140.926 31.086C140.926 32.0473 140.702 32.9107 140.254 33.676C139.815 34.432 139.213 35.0247 138.448 35.454C137.682 35.8833 136.842 36.098 135.928 36.098ZM135.928 34.348C136.516 34.348 137.034 34.2173 137.482 33.956C137.93 33.6853 138.28 33.3027 138.532 32.808C138.784 32.3133 138.91 31.7393 138.91 31.086C138.91 30.4327 138.784 29.8633 138.532 29.378C138.28 28.8833 137.93 28.5053 137.482 28.244C137.034 27.9827 136.516 27.852 135.928 27.852C135.34 27.852 134.817 27.9827 134.36 28.244C133.912 28.5053 133.562 28.8833 133.31 29.378C133.058 29.8633 132.932 30.4327 132.932 31.086C132.932 31.7393 133.058 32.3133 133.31 32.808C133.562 33.3027 133.912 33.6853 134.36 33.956C134.817 34.2173 135.34 34.348 135.928 34.348ZM150.242 36H148.282L143.844 29.294V36H141.884V26.214H143.844L148.282 32.934V26.214H150.242V36Z" fill="white"/>
<path d="M98.1 57.24C97.78 56.6533 97.34 56.2067 96.78 55.9C96.22 55.5933 95.5667 55.44 94.82 55.44C93.9933 55.44 93.26 55.6267 92.62 56C91.98 56.3733 91.48 56.9067 91.12 57.6C90.76 58.2933 90.58 59.0933 90.58 60C90.58 60.9333 90.76 61.7467 91.12 62.44C91.4933 63.1333 92.0067 63.6667 92.66 64.04C93.3133 64.4133 94.0733 64.6 94.94 64.6C96.0067 64.6 96.88 64.32 97.56 63.76C98.24 63.1867 98.6867 62.3933 98.9 61.38H94.1V59.24H101.66V61.68C101.473 62.6533 101.073 63.5533 100.46 64.38C99.8467 65.2067 99.0533 65.8733 98.08 66.38C97.12 66.8733 96.04 67.12 94.84 67.12C93.4933 67.12 92.2733 66.82 91.18 66.22C90.1 65.6067 89.2467 64.76 88.62 63.68C88.0067 62.6 87.7 61.3733 87.7 60C87.7 58.6267 88.0067 57.4 88.62 56.32C89.2467 55.2267 90.1 54.38 91.18 53.78C92.2733 53.1667 93.4867 52.86 94.82 52.86C96.3933 52.86 97.76 53.2467 98.92 54.02C100.08 54.78 100.88 55.8533 101.32 57.24H98.1ZM109.712 67.14C108.405 67.14 107.205 66.8333 106.112 66.22C105.018 65.6067 104.152 64.76 103.512 63.68C102.872 62.5867 102.552 61.3533 102.552 59.98C102.552 58.62 102.872 57.4 103.512 56.32C104.152 55.2267 105.018 54.3733 106.112 53.76C107.205 53.1467 108.405 52.84 109.712 52.84C111.032 52.84 112.232 53.1467 113.312 53.76C114.405 54.3733 115.265 55.2267 115.892 56.32C116.532 57.4 116.852 58.62 116.852 59.98C116.852 61.3533 116.532 62.5867 115.892 63.68C115.265 64.76 114.405 65.6067 113.312 66.22C112.218 66.8333 111.018 67.14 109.712 67.14ZM109.712 64.64C110.552 64.64 111.292 64.4533 111.932 64.08C112.572 63.6933 113.072 63.1467 113.432 62.44C113.792 61.7333 113.972 60.9133 113.972 59.98C113.972 59.0467 113.792 58.2333 113.432 57.54C113.072 56.8333 112.572 56.2933 111.932 55.92C111.292 55.5467 110.552 55.36 109.712 55.36C108.872 55.36 108.125 55.5467 107.472 55.92C106.832 56.2933 106.332 56.8333 105.972 57.54C105.612 58.2333 105.432 59.0467 105.432 59.98C105.432 60.9133 105.612 61.7333 105.972 62.44C106.332 63.1467 106.832 63.6933 107.472 64.08C108.125 64.4533 108.872 64.64 109.712 64.64ZM124.915 67.14C123.608 67.14 122.408 66.8333 121.315 66.22C120.221 65.6067 119.355 64.76 118.715 63.68C118.075 62.5867 117.755 61.3533 117.755 59.98C117.755 58.62 118.075 57.4 118.715 56.32C119.355 55.2267 120.221 54.3733 121.315 53.76C122.408 53.1467 123.608 52.84 124.915 52.84C126.235 52.84 127.435 53.1467 128.515 53.76C129.608 54.3733 130.468 55.2267 131.095 56.32C131.735 57.4 132.055 58.62 132.055 59.98C132.055 61.3533 131.735 62.5867 131.095 63.68C130.468 64.76 129.608 65.6067 128.515 66.22C127.421 66.8333 126.221 67.14 124.915 67.14ZM124.915 64.64C125.755 64.64 126.495 64.4533 127.135 64.08C127.775 63.6933 128.275 63.1467 128.635 62.44C128.995 61.7333 129.175 60.9133 129.175 59.98C129.175 59.0467 128.995 58.2333 128.635 57.54C128.275 56.8333 127.775 56.2933 127.135 55.92C126.495 55.5467 125.755 55.36 124.915 55.36C124.075 55.36 123.328 55.5467 122.675 55.92C122.035 56.2933 121.535 56.8333 121.175 57.54C120.815 58.2333 120.635 59.0467 120.635 59.98C120.635 60.9133 120.815 61.7333 121.175 62.44C121.535 63.1467 122.035 63.6933 122.675 64.08C123.328 64.4533 124.075 64.64 124.915 64.64ZM143.358 57.24C143.038 56.6533 142.598 56.2067 142.038 55.9C141.478 55.5933 140.824 55.44 140.078 55.44C139.251 55.44 138.518 55.6267 137.878 56C137.238 56.3733 136.738 56.9067 136.378 57.6C136.018 58.2933 135.838 59.0933 135.838 60C135.838 60.9333 136.018 61.7467 136.378 62.44C136.751 63.1333 137.264 63.6667 137.918 64.04C138.571 64.4133 139.331 64.6 140.198 64.6C141.264 64.6 142.138 64.32 142.818 63.76C143.498 63.1867 143.944 62.3933 144.158 61.38H139.358V59.24H146.918V61.68C146.731 62.6533 146.331 63.5533 145.718 64.38C145.104 65.2067 144.311 65.8733 143.338 66.38C142.378 66.8733 141.298 67.12 140.098 67.12C138.751 67.12 137.531 66.82 136.438 66.22C135.358 65.6067 134.504 64.76 133.878 63.68C133.264 62.6 132.958 61.3733 132.958 60C132.958 58.6267 133.264 57.4 133.878 56.32C134.504 55.2267 135.358 54.38 136.438 53.78C137.531 53.1667 138.744 52.86 140.078 52.86C141.651 52.86 143.018 53.2467 144.178 54.02C145.338 54.78 146.138 55.8533 146.578 57.24H143.358ZM151.289 64.78H155.889V67H148.489V53.04H151.289V64.78ZM159.969 55.3V58.8H164.669V61.02H159.969V64.72H165.269V67H157.169V53.02H165.269V55.3H159.969ZM181.759 57.36C181.759 58.1067 181.579 58.8067 181.219 59.46C180.873 60.1133 180.319 60.64 179.559 61.04C178.813 61.44 177.866 61.64 176.719 61.64H174.379V67H171.579V53.04H176.719C177.799 53.04 178.719 53.2267 179.479 53.6C180.239 53.9733 180.806 54.4867 181.179 55.14C181.566 55.7933 181.759 56.5333 181.759 57.36ZM176.599 59.38C177.373 59.38 177.946 59.2067 178.319 58.86C178.693 58.5 178.879 58 178.879 57.36C178.879 56 178.119 55.32 176.599 55.32H174.379V59.38H176.599ZM186.047 64.78H190.647V67H183.247V53.04H186.047V64.78ZM200.487 64.34H194.927L194.007 67H191.067L196.087 53.02H199.347L204.367 67H201.407L200.487 64.34ZM199.727 62.1L197.707 56.26L195.687 62.1H199.727ZM216.843 53.04L212.123 62.14V67H209.323V62.14L204.583 53.04H207.743L210.743 59.42L213.723 53.04H216.843Z" fill="white"/>
<path d="M25.0619 27.7233L39.6285 42.0083L25.1702 56.425C24.9337 56.1169 24.75 55.7717 24.6269 55.4033C24.5632 54.9863 24.5632 54.562 24.6269 54.145V29.6117C24.5835 28.9533 24.7352 28.295 25.0602 27.7233M45.9035 35.7783L41.1485 40.4883L26.7552 26.3333C27.2219 26.1717 27.7219 26.1267 28.2102 26.2033C28.9769 26.4133 29.7085 26.7367 30.3802 27.1583L43.4069 34.3667C44.2535 34.8217 45.0785 35.3 45.9035 35.7783ZM41.1502 43.55L45.8819 48.1967L42.4519 50.1067L31.9869 55.9233C31.1202 56.4017 30.2502 56.8583 29.4035 57.38C29.0413 57.6055 28.635 57.7512 28.212 57.8072C27.7889 57.8633 27.3587 57.8284 26.9502 57.705L41.1502 43.55ZM53.4169 42.0083C53.429 42.5911 53.2818 43.1662 52.991 43.6714C52.7002 44.1766 52.2769 44.5928 51.7669 44.875L47.8569 47.045L42.7119 42.0083L47.8785 36.885C49.2035 37.6233 50.5069 38.3617 51.8085 39.0567C52.3277 39.3468 52.7541 39.778 53.0384 40.3003C53.3227 40.8227 53.455 41.4148 53.4169 42.0083Z" fill="white"/>
<defs>
<linearGradient id="paint0_linear_2203_3326" x1="0" y1="46.5" x2="260" y2="46.5" gradientUnits="userSpaceOnUse">
<stop stop-color="#463E6F"/>
<stop offset="1" stop-color="#1C113B"/>
</linearGradient>
</defs>
</svg>
